<?xml version="1.0" encoding="UTF-8" standalone="no"?>
<svg
   xmlns:dc="http://purl.org/dc/elements/1.1/"
   xmlns:cc="http://creativecommons.org/ns#"
   xmlns:rdf="http://www.w3.org/1999/02/22-rdf-syntax-ns#"
   xmlns:svg="http://www.w3.org/2000/svg"
   xmlns="http://www.w3.org/2000/svg"
   xmlns:sodipodi="http://sodipodi.sourceforge.net/DTD/sodipodi-0.dtd"
   xmlns:inkscape="http://www.inkscape.org/namespaces/inkscape"
   width="50mm"
   height="50mm"
   clip-rule="evenodd"
   fill-rule="evenodd"
   image-rendering="optimizeQuality"
   shape-rendering="geometricPrecision"
   text-rendering="geometricPrecision"
   version="1.1"
   viewBox="0 0 50 50"
   id="svg35"
   sodipodi:docname="bB.svg">
  <metadata
     id="metadata39">
    <rdf:RDF>
      <cc:Work
         rdf:about="">
        <dc:format>image/svg+xml</dc:format>
        <dc:type
           rdf:resource="http://purl.org/dc/dcmitype/StillImage" />
      </cc:Work>
    </rdf:RDF>
  </metadata>
  <sodipodi:namedview
     pagecolor="#ffffff"
     bordercolor="#666666"
     borderopacity="1"
     objecttolerance="10"
     gridtolerance="10"
     guidetolerance="10"
     inkscape:pageopacity="0"
     inkscape:pageshadow="2"
     inkscape:window-width="2560"
     inkscape:window-height="1369"
     id="namedview37"
     showgrid="false"
     inkscape:zoom="7.0644681"
     inkscape:cx="131.62476"
     inkscape:cy="96.603874"
     inkscape:window-x="0"
     inkscape:window-y="40"
     inkscape:window-maximized="1"
     inkscape:current-layer="g29" />
  <defs
     id="defs21">
    <linearGradient
       id="linearGradient2720-5"
       x1="13197"
       x2="13341"
       y1="-9591.1"
       y2="-9591.1"
       gradientTransform="matrix(.26458 0 0 .26458 -3485.7 2562.6)"
       gradientUnits="userSpaceOnUse">
      <stop
         stop-color="#3c3c3c"
         offset="0"
         id="stop2" />
      <stop
         offset="1"
         id="stop4" />
    </linearGradient>
    <filter
       id="filter2809-5-8-5-1-4-7-5"
       color-interpolation-filters="sRGB">
      <feGaussianBlur
         result="blur"
         stdDeviation="0.01 0.01"
         id="feGaussianBlur7" />
    </filter>
    <filter
       id="filter845"
       color-interpolation-filters="sRGB">
      <feFlood
         flood-color="rgb(0,0,0)"
         flood-opacity=".49804"
         result="flood"
         id="feFlood10" />
      <feComposite
         in="flood"
         in2="SourceGraphic"
         operator="in"
         result="composite1"
         id="feComposite12" />
      <feGaussianBlur
         in="composite1"
         result="blur"
         stdDeviation="0.3"
         id="feGaussianBlur14" />
      <feOffset
         dx="1"
         dy="1"
         result="offset"
         id="feOffset16" />
      <feComposite
         in="SourceGraphic"
         in2="offset"
         result="composite2"
         id="feComposite18" />
    </filter>
  </defs>
  <g
     id="g33"
     style="clip-rule:evenodd;shape-rendering:geometricPrecision">
    <g
       id="g29"
       style="fill-rule:evenodd">
      <path
         d="m 25,6.55 c -0.8776,0 -1.6536,0.2905 -2.2614,0.9028 -0.641,0.6123 -0.9456,1.3212 -0.9456,2.159 0,1.2248 0.5739,2.127 1.7555,2.7394 -2.9691,3.2861 -8.7077,5.8222 -8.8109,10.828 0.01,2.6744 1.4661,4.7641 3.3084,6.7996 l -1.1142,5.8332 c 1.6971,0.5416 3.0898,0.9417 4.8276,1.1281 -3.8819,4.5762 -10.787,-1.7402 -15.209,2.9326 l 2.3302,3.5771 c 5.5928,-3.962 13.374,3.6729 16.12,-3.9621 2.7459,7.6351 10.527,0 16.12,3.9621 l 2.3297,-3.5771 c -4.422,-4.6728 -11.327,1.6436 -15.209,-2.9326 1.7377,-0.1864 3.1302,-0.5865 4.8273,-1.1281 l -1.1142,-5.8332 c 1.8423,-2.0355 3.3012,-4.1252 3.3084,-6.7996 -0.1032,-5.0062 -5.8418,-7.5422 -8.8109,-10.828 1.1816,-0.6124 1.7555,-1.5146 1.7555,-2.7394 0,-0.8378 -0.304,-1.5467 -0.9454,-2.159 C 26.6543,6.8405 25.8783,6.55 25.0006,6.55 Z"
         id="path23"
         inkscape:connector-curvature="0" />
      <ellipse
         class="st15"
         transform="matrix(0.33232,0,0,0.24998,-879.01,102.47)"
         cx="2720.3"
         cy="-271.39999"
         rx="16.299999"
         ry="2.5"
         id="ellipse25"
         style="fill:#e6e6e6;stroke-width:0.91798002;filter:url(#filter2809-5-8-5-1-4-7-5);image-rendering:optimizeQuality" />
      <ellipse
         class="st15"
         cx="25"
         cy="9.6117001"
         rx="1.1401"
         ry="1.1474"
         id="ellipse27"
         style="fill:#e6e6e6;stroke-width:0.26458001;image-rendering:optimizeQuality" />
    </g>
    <path
       d="m 21.333,23.266 h 7.333 m -3.6663,-3.3339 v 6.7524"
       id="path31"
       inkscape:connector-curvature="0"
       style="fill:none;stroke:#e6e6e6;stroke-width:1.39999998;image-rendering:optimizeQuality" />
  </g>
</svg>
